<svg xmlns="http://www.w3.org/2000/svg" width="27.512" height="22.009" viewBox="0 0 27.512 22.009">
  <path id="Trazado_75" data-name="Trazado 75" d="M274.739,6734H252.73a2.748,2.748,0,0,0-2.738,2.751l-.014,16.507a2.76,2.76,0,0,0,2.752,2.751h22.009a2.759,2.759,0,0,0,2.751-2.751V6736.75A2.759,2.759,0,0,0,274.739,6734Zm-1.376,19.258H254.1a1.379,1.379,0,0,1-1.375-1.375V6739.5l9.546,5.97a2.724,2.724,0,0,0,2.916,0l9.547-5.97v12.381A1.379,1.379,0,0,1,273.363,6753.257Zm-9.629-9.629-11-6.878h22.009Z" transform="translate(-249.978 -6733.999)" fill="#fff"/>
</svg>
